<?xml version="1.0" encoding="utf-8"?>
<!-- Generator: Adobe Illustrator 17.0.0, SVG Export Plug-In . SVG Version: 6.00 Build 0)  -->
<!DOCTYPE svg PUBLIC "-//W3C//DTD SVG 1.1//EN" "http://www.w3.org/Graphics/SVG/1.1/DTD/svg11.dtd">
<svg version="1.1" id="Layer_1" xmlns="http://www.w3.org/2000/svg" xmlns:xlink="http://www.w3.org/1999/xlink" x="0px" y="0px" viewBox="0 0 16 16" enable-background="new 0 0 16 16" xml:space="preserve">
<path fill-rule="evenodd" clip-rule="evenodd" fill="#EA4C89" d="M8,16c-4.411,0-8-3.589-8-8c0-4.411,3.589-8,8-8s8,3.589,8,8
	C16,12.411,12.411,16,8,16z M14.747,9.095c-0.234-0.074-2.115-0.635-4.256-0.292c0.894,2.456,1.258,4.456,1.328,4.872
	C13.351,12.638,14.442,10.996,14.747,9.095z M10.669,14.3c-0.102-0.6-0.498-2.689-1.458-5.182c-0.015,0.005-0.03,0.01-0.045,0.015
	c-3.854,1.343-5.238,4.016-5.361,4.267C4.964,14.305,6.42,14.844,8,14.844C8.947,14.844,9.849,14.65,10.669,14.3z M2.923,12.579
	c0.155-0.265,2.03-3.37,5.554-4.509c0.089-0.029,0.179-0.056,0.269-0.082C8.575,7.6,8.389,7.212,8.193,6.829
	C4.78,7.85,1.469,7.808,1.17,7.801C1.168,7.871,1.167,7.94,1.167,8.01C1.167,9.765,1.832,11.368,2.923,12.579z M1.311,6.611
	c0.306,0.004,3.121,0.016,6.317-0.833C6.496,3.766,5.275,2.073,5.095,1.826C3.183,2.728,1.754,4.49,1.311,6.611z M6.399,1.367
	c0.189,0.253,1.43,1.943,2.55,4c2.43-0.911,3.458-2.293,3.581-2.468C11.323,1.828,9.736,1.177,8,1.177
	C7.449,1.177,6.913,1.243,6.399,1.367z M13.289,3.689C13.145,3.884,12,5.352,9.474,6.383c0.159,0.326,0.311,0.656,0.453,0.99
	c0.05,0.118,0.099,0.236,0.147,0.353c2.274-0.286,4.533,0.172,4.758,0.22C14.817,6.333,14.241,4.852,13.289,3.689z"/>
</svg>
