<?xml version="1.0" encoding="utf-8"?>
<!-- Generator: Adobe Illustrator 17.0.0, SVG Export Plug-In . SVG Version: 6.00 Build 0)  -->
<!DOCTYPE svg PUBLIC "-//W3C//DTD SVG 1.1//EN" "http://www.w3.org/Graphics/SVG/1.1/DTD/svg11.dtd">
<svg version="1.1" id="Layer_1" xmlns="http://www.w3.org/2000/svg" xmlns:xlink="http://www.w3.org/1999/xlink" x="0px" y="0px" viewBox="0 0 16 16" enable-background="new 0 0 16 16" xml:space="preserve">
<rect x="1.25" y="1.583" fill-rule="evenodd" clip-rule="evenodd" fill="#FFFFFF" width="13.25" height="12.917"/>
<g>
	<g>
		<path fill-rule="evenodd" clip-rule="evenodd" fill="#027BB5" d="M14.815,0H1.181C0.529,0,0,0.517,0,1.153v13.693
			C0,15.483,0.529,16,1.181,16h13.634C15.467,16,16,15.483,16,14.846V1.153C16,0.517,15.467,0,14.815,0z M4.745,13.634H2.371V5.999
			h2.374V13.634z M3.558,4.955c-0.761,0-1.376-0.617-1.376-1.377c0-0.759,0.615-1.376,1.376-1.376c0.759,0,1.375,0.617,1.375,1.376
			C4.934,4.339,4.317,4.955,3.558,4.955z M13.633,13.634h-2.37V9.921c0-0.886-0.017-2.025-1.234-2.025
			c-1.235,0-1.423,0.965-1.423,1.961v3.777H6.234V5.999H8.51v1.043h0.032c0.317-0.6,1.091-1.233,2.246-1.233
			c2.401,0,2.845,1.581,2.845,3.638V13.634z"/>
	</g>
</g>
</svg>
