<?xml version="1.0" encoding="utf-8"?>
<!-- Generator: Adobe Illustrator 17.0.0, SVG Export Plug-In . SVG Version: 6.00 Build 0)  -->
<!DOCTYPE svg PUBLIC "-//W3C//DTD SVG 1.1//EN" "http://www.w3.org/Graphics/SVG/1.1/DTD/svg11.dtd">
<svg version="1.1" id="Layer_1" xmlns="http://www.w3.org/2000/svg" xmlns:xlink="http://www.w3.org/1999/xlink" x="0px" y="0px"
	 width="16px" height="78px" viewBox="0 0 16 78" enable-background="new 0 0 16 78" xml:space="preserve">
<path fill="#EA4C89" d="M7.949,45.949c-4.411,0-8-3.589-8-8s3.589-8,8-8s8,3.589,8,8S12.36,45.949,7.949,45.949z M14.696,39.044
	c-0.234-0.074-2.115-0.635-4.256-0.292c0.894,2.456,1.258,4.456,1.328,4.872C13.3,42.587,14.391,40.945,14.696,39.044z
	 M10.618,44.249c-0.102-0.6-0.498-2.689-1.458-5.182c-0.015,0.005-0.03,0.01-0.045,0.015c-3.854,1.343-5.238,4.016-5.361,4.267
	c1.159,0.905,2.615,1.444,4.195,1.444C8.896,44.793,9.798,44.599,10.618,44.249z M2.872,42.528c0.155-0.265,2.03-3.37,5.554-4.509
	c0.089-0.029,0.179-0.056,0.269-0.082c-0.171-0.388-0.357-0.776-0.553-1.159c-3.413,1.021-6.724,0.979-7.023,0.972
	c-0.002,0.07-0.003,0.139-0.003,0.209C1.116,39.714,1.781,41.317,2.872,42.528z M1.26,36.56c0.306,0.004,3.121,0.016,6.317-0.833
	c-1.132-2.012-2.353-3.705-2.533-3.952C3.132,32.677,1.703,34.439,1.26,36.56z M6.348,31.316c0.189,0.253,1.43,1.943,2.55,4
	c2.43-0.911,3.458-2.293,3.581-2.468c-1.207-1.071-2.794-1.722-4.53-1.722C7.398,31.126,6.862,31.192,6.348,31.316z M13.238,33.638
	c-0.144,0.195-1.289,1.663-3.815,2.694c0.159,0.326,0.311,0.656,0.453,0.99c0.05,0.118,0.099,0.236,0.147,0.353
	c2.274-0.286,4.533,0.172,4.758,0.22C14.766,36.282,14.19,34.801,13.238,33.638z"/>
<path fill="#00ACEE" d="M15.987,1.609c-0.589,0.273-1.221,0.457-1.885,0.54c0.678-0.425,1.198-1.097,1.443-1.898
	c-0.634,0.393-1.337,0.678-2.085,0.832C12.861,0.416,12.008,0,11.064,0C9.251,0,7.781,1.536,7.781,3.43
	c0,0.269,0.029,0.531,0.085,0.782C5.139,4.069,2.72,2.704,1.101,0.629C0.818,1.135,0.657,1.724,0.657,2.353
	c0,1.19,0.58,2.24,1.46,2.855C1.579,5.19,1.073,5.035,0.63,4.779c0,0.014,0,0.029,0,0.043c0,1.662,1.132,3.048,2.633,3.363
	c-0.275,0.078-0.565,0.12-0.865,0.12c-0.212,0-0.417-0.022-0.618-0.062c0.418,1.363,1.63,2.354,3.066,2.382
	c-1.123,0.92-2.539,1.468-4.077,1.468c-0.265,0-0.526-0.016-0.783-0.048c1.454,0.974,3.179,1.542,5.033,1.542
	c6.038,0,9.34-5.226,9.34-9.759c0-0.149-0.003-0.297-0.01-0.444C14.991,2.901,15.547,2.297,15.987,1.609z"/>
<rect x="1.25" y="63.583" fill="#FFFFFF" width="13.25" height="12.917"/>
<g>
	<g>
		<path fill="#027BB5" d="M14.815,62H1.181C0.529,62,0,62.517,0,63.153v13.693C0,77.483,0.529,78,1.181,78h13.634
			C15.467,78,16,77.483,16,76.846V63.153C16,62.517,15.467,62,14.815,62z M4.745,75.634H2.371v-7.635h2.374V75.634z M3.558,66.955
			c-0.761,0-1.376-0.617-1.376-1.377c0-0.759,0.615-1.376,1.376-1.376c0.759,0,1.375,0.617,1.375,1.376
			C4.934,66.339,4.317,66.955,3.558,66.955z M13.633,75.634h-2.37v-3.713c0-0.886-0.017-2.025-1.234-2.025
			c-1.235,0-1.423,0.965-1.423,1.961v3.777H6.234v-7.635H8.51v1.043h0.032c0.317-0.6,1.091-1.233,2.246-1.233
			c2.401,0,2.845,1.581,2.845,3.638V75.634z"/>
	</g>
</g>
</svg>
