<?xml version="1.0" encoding="utf-8"?>
<!-- Generator: Adobe Illustrator 17.0.0, SVG Export Plug-In . SVG Version: 6.00 Build 0)  -->
<!DOCTYPE svg PUBLIC "-//W3C//DTD SVG 1.1//EN" "http://www.w3.org/Graphics/SVG/1.1/DTD/svg11.dtd">
<svg version="1.1" id="Layer_1" xmlns="http://www.w3.org/2000/svg" xmlns:xlink="http://www.w3.org/1999/xlink" x="0px" y="0px"
	 width="16px" height="16px" viewBox="0 0 16 16" enable-background="new 0 0 16 16" xml:space="preserve">
<path fill="#00ACEE" d="M15.987,3.022c-0.589,0.273-1.221,0.457-1.885,0.54c0.678-0.425,1.198-1.097,1.443-1.898
	c-0.634,0.393-1.337,0.678-2.085,0.832c-0.599-0.667-1.452-1.083-2.396-1.083c-1.813,0-3.283,1.536-3.283,3.43
	c0,0.269,0.029,0.531,0.085,0.782C5.139,5.482,2.72,4.117,1.101,2.042C0.818,2.548,0.657,3.137,0.657,3.766
	c0,1.19,0.58,2.24,1.46,2.855C1.579,6.603,1.073,6.448,0.63,6.192c0,0.014,0,0.029,0,0.043c0,1.662,1.132,3.048,2.633,3.363
	c-0.275,0.078-0.565,0.12-0.865,0.12c-0.212,0-0.417-0.022-0.618-0.062c0.418,1.363,1.63,2.354,3.066,2.382
	c-1.123,0.92-2.539,1.468-4.077,1.468c-0.265,0-0.526-0.016-0.783-0.048C1.44,14.432,3.165,15,5.019,15
	c6.038,0,9.34-5.226,9.34-9.759c0-0.149-0.003-0.297-0.01-0.444C14.991,4.314,15.547,3.71,15.987,3.022z"/>
</svg>
